<?xml version="1.0" encoding="UTF-8"?>
<svg width="205px" height="160px" viewBox="0 0 256 199" version="1.1" xmlns="http://www.w3.org/2000/svg" xmlns:xlink="http://www.w3.org/1999/xlink" preserveAspectRatio="xMidYMid">
	<g>
		<polygon fill="#6C6BBD" points="162.611457 141.314624 93.388935 141.314624 93.388935 16.9132715 162.611457 16.9132715"></polygon>
		<path d="M97.782719,79.1164824 C97.782719,104.351869 109.598131,126.83083 127.997782,141.317159 C114.542597,151.910287 97.5614005,158.232967 79.1064205,158.232967 C35.4160534,158.232967 -3.86542948e-06,122.811879 -3.86542948e-06,79.1164824 C-3.86542948e-06,35.4210857 35.4160534,-1.5e-06 79.1064205,-1.5e-06 C97.5614005,-1.5e-06 114.542597,6.32267769 127.997782,16.915806 C109.598131,31.4021353 97.782719,53.8810959 97.782719,79.1164824" fill="#D32011" transform="translate(63.998889, 79.116483) scale(1, -1) translate(-63.998889, -79.116483) "></path>
		<path d="M255.999994,79.1164824 C255.999994,35.4210857 220.583936,-1.5e-06 176.89357,-1.5e-06 C158.43859,-1.5e-06 141.457392,6.32267769 127.997178,16.915806 C146.401859,31.4021353 158.217271,53.8810959 158.217271,79.1164824 C158.217271,104.351869 146.401859,126.83083 127.997178,141.317159 C141.457392,151.910287 158.43859,158.232967 176.89357,158.232967 C220.583936,158.232967 255.999994,122.811879 255.999994,79.1164824" fill="#0099DF" transform="translate(191.998586, 79.116483) scale(1, -1) translate(-191.998586, -79.116483) "></path>
	</g>
</svg>
